<?xml version="1.0" encoding="UTF-8" standalone="no"?>
<svg width="30px" height="28px" viewBox="0 0 30 28" version="1.1" xmlns="http://www.w3.org/2000/svg" xmlns:xlink="http://www.w3.org/1999/xlink">
    <g id="Page-1" stroke="none" stroke-width="1" fill="none" fill-rule="evenodd">
        <g id="Inside-group" transform="translate(-49.000000, -96.000000)" stroke="#FF6767">
            <g id="Like" transform="translate(50.000000, 97.000000)">
                <path d="M13.798176,6.63620777 C13.6587156,2.94755096 10.6243726,0 6.90159221,0 C3.08994808,0 0,3.08994808 0,6.90159221 C0,8.74429593 0.722166798,10.4183286 1.89891807,11.6561078 L1.89489599,11.6615398 C1.89489599,11.6615398 1.9233938,11.6876338 1.97704923,11.7369698 C2.13467338,11.8974823 2.30008385,12.0503227 2.472669,12.1948794 C2.8630529,12.556974 3.42346929,13.0797627 4.06661808,13.6887063 C5.73405161,15.2674589 7.95758111,17.4253113 9.21586774,18.863299 C10.8892459,20.7756592 13.6957706,25 13.6957706,25 C13.6957706,25 15.2569729,22.0314391 17.4508483,19.6284761 C18.8277966,18.1202974 23.2457603,14.2608506 24.8963536,12.8302477 C25.1139531,12.6636599 25.3213477,12.4844125 25.5174371,12.2936057 C25.5233158,12.2885493 25.5263115,12.2859748 25.5263115,12.2859748 C26.8093729,11.0323464 27.6063688,9.2826755 27.6063688,7.34685622 C27.6063688,3.5352121 24.5164208,0.445264013 20.7047766,0.445264013 C17.1266029,0.445264013 14.1844225,3.16827457 13.8374187,6.65511209 L13.798176,6.63620777 Z" id="Combined-Shape"></path>
            </g>
        </g>
    </g>
</svg>