<?xml version="1.0" encoding="utf-8"?>
<!-- Generator: Adobe Illustrator 18.0.0, SVG Export Plug-In . SVG Version: 6.00 Build 0)  -->
<!DOCTYPE svg PUBLIC "-//W3C//DTD SVG 1.1//EN" "http://www.w3.org/Graphics/SVG/1.1/DTD/svg11.dtd">
<svg version="1.1" id="Layer_1" xmlns="http://www.w3.org/2000/svg" xmlns:xlink="http://www.w3.org/1999/xlink" x="0px" y="0px"
	 width="30px" height="30px" viewBox="0 0 30 30" style="enable-background:new 0 0 30 30;" xml:space="preserve">
<g>
	<path class="st0" d="M17.7,0.2c0,9.9,0,19.7,0,29.6c-0.2-0.2-0.4-0.3-0.6-0.4c-2.8-2.8-5.6-5.6-8.4-8.4c-0.3-0.3-0.5-0.8-0.5-1.3
		c0-3.1,0-6.3,0-9.4c0-0.4,0.1-0.8,0.4-1.1c2.9-3,5.9-5.9,8.8-8.9C17.4,0.3,17.5,0.3,17.7,0.2z"/>
	<path class="st0" d="M0,8.2c1.8,0,3.6,0,5.4,0c0,4.5,0,9,0,13.6c-1.8,0-3.6,0-5.4,0C0,17.3,0,12.8,0,8.2z"/>
	<path class="st0" d="M24.2,4.8c3.7,2.4,5.8,5.7,5.8,10.1c0,4.5-2,7.9-5.8,10.4c-0.2-0.4-0.4-0.7-0.5-1c-0.2-0.3-0.3-0.6-0.4-0.8
		c1-1,1.9-2,2.8-3c2.4-3.1,2.4-7.7,0-10.8c-0.6-0.8-1.3-1.5-2.1-2.1c-0.6-0.5-0.8-0.9-0.3-1.5C23.8,5.6,23.9,5.2,24.2,4.8z"/>
	<path class="st0" d="M21.5,9.6c4.6,3,3.6,8.8-0.1,10.8c-0.3-0.6-0.6-1.1-1.1-1.9c0.3-0.2,0.7-0.4,0.9-0.7c1.5-1.7,1.6-3.9,0-5.6
		c-0.8-0.8-0.6-1.4-0.1-2.1C21.2,10,21.3,9.8,21.5,9.6z"/>
</g>
</svg>
