<?xml version="1.0" encoding="utf-8"?>
<!-- Generator: Adobe Illustrator 18.0.0, SVG Export Plug-In . SVG Version: 6.00 Build 0)  -->
<!DOCTYPE svg PUBLIC "-//W3C//DTD SVG 1.1//EN" "http://www.w3.org/Graphics/SVG/1.1/DTD/svg11.dtd">
<svg version="1.1" id="Layer_1" xmlns="http://www.w3.org/2000/svg" xmlns:xlink="http://www.w3.org/1999/xlink" x="0px" y="0px"
	 width="30px" height="30px" viewBox="97.1 78 30 30" enable-background="new 97.1 78 30 30" xml:space="preserve">
<g>
	<path d="M117.4,103.1c0,0.7-0.4,1.1-1,1.1c-0.3,0-0.6-0.1-0.8-0.2c-2.9-1-5.9-1.9-8.8-3c-0.3-0.1-0.6-0.5-0.7-0.8
		c-0.7-2.8-1.4-5.5-2.1-8.3c-0.1-0.3,0-0.8,0.3-1c2.1-2.2,4.3-4.3,6.4-6.5c1-1,1.8-0.8,2.2,0.6c1.5,5.9,2.9,11.7,4.4,17.6
		C117.4,102.9,117.4,103,117.4,103.1z"/>
	<path d="M102.5,91.7c0.8,3.2,1.6,6.3,2.4,9.5c-1.5,0.3-2.9,0.7-4.3,1c-0.9,0.1-1.7-0.5-2-1.4c-0.5-1.9-1-3.8-1.4-5.7
		c-0.2-1.1,0.4-2,1.4-2.4C99.8,92.4,101.1,92.1,102.5,91.7z"/>
	<path d="M121.6,81.8c0.4,0.3,0.9,0.5,1.1,0.9c0.4,0.5,0.2,1.1-0.2,1.6c-0.9,1-1.8,2-2.7,3c-0.7,0.8-1.4,1.5-2.1,2.3
		c-0.7,0.7-1.5,0.8-2,0.2c-0.6-0.6-0.6-1.3,0-2c1.6-1.7,3.2-3.5,4.8-5.1C120.8,82.3,121.2,82.1,121.6,81.8z"/>
	<path d="M125,90c0.7,0,1.2,0.4,1.3,1.1c0.1,0.8-0.2,1.4-1,1.6c-1.9,0.5-3.7,0.9-5.6,1.4c-0.6,0.2-1.2,0.3-1.9,0.4
		c-0.7,0.1-1.3-0.3-1.5-1c-0.2-0.7,0.2-1.4,0.9-1.6c2.5-0.7,5.1-1.3,7.6-1.9C124.8,90,124.9,90,125,90z"/>
	<path d="M118.9,96.1c0.2,0,0.4,0.1,0.7,0.2c2.1,0.7,4.3,1.5,6.4,2.2c0.9,0.3,1.3,1,1,1.8c-0.2,0.7-1,1.1-1.9,0.8
		c-2.2-0.8-4.5-1.5-6.7-2.3c-0.7-0.3-1.1-0.9-0.9-1.6C117.6,96.6,118.2,96.1,118.9,96.1z"/>
</g>
</svg>
